<svg xmlns="http://www.w3.org/2000/svg" xmlns:xlink="http://www.w3.org/1999/xlink" width="500" zoomAndPan="magnify" viewBox="0 0 375 374.999991" height="500" preserveAspectRatio="xMidYMid meet" version="1.0"><defs><g/><clipPath id="35cef9ad00"><path d="M 186.1875 119.132812 L 201.867188 119.132812 L 201.867188 186.511719 L 186.1875 186.511719 Z M 186.1875 119.132812 " clip-rule="nonzero"/></clipPath><clipPath id="6319a811a1"><path d="M 194.027344 119.132812 C 196.109375 119.132812 198.101562 119.957031 199.574219 121.429688 C 201.042969 122.898438 201.867188 124.894531 201.867188 126.972656 L 201.867188 178.65625 C 201.867188 180.734375 201.042969 182.730469 199.574219 184.199219 C 198.101562 185.667969 196.109375 186.496094 194.027344 186.496094 C 191.949219 186.496094 189.957031 185.667969 188.484375 184.199219 C 187.015625 182.730469 186.1875 180.734375 186.1875 178.65625 L 186.1875 126.972656 C 186.1875 124.894531 187.015625 122.898438 188.484375 121.429688 C 189.957031 119.957031 191.949219 119.132812 194.027344 119.132812 Z M 194.027344 119.132812 " clip-rule="nonzero"/></clipPath><clipPath id="00834eb170"><path d="M 186.1875 119.15625 L 201.472656 119.15625 L 201.472656 186.207031 L 186.1875 186.207031 Z M 186.1875 119.15625 " clip-rule="nonzero"/></clipPath><clipPath id="dd8881ea15"><path d="M 194.023438 119.15625 C 196.101562 119.15625 198.09375 119.980469 199.5625 121.449219 C 201.03125 122.917969 201.855469 124.910156 201.855469 126.988281 L 201.855469 178.628906 C 201.855469 180.707031 201.03125 182.699219 199.5625 184.167969 C 198.09375 185.636719 196.101562 186.464844 194.023438 186.464844 C 191.945312 186.464844 189.953125 185.636719 188.484375 184.167969 C 187.015625 182.699219 186.1875 180.707031 186.1875 178.628906 L 186.1875 126.988281 C 186.1875 124.910156 187.015625 122.917969 188.484375 121.449219 C 189.953125 119.980469 191.945312 119.15625 194.023438 119.15625 Z M 194.023438 119.15625 " clip-rule="nonzero"/></clipPath><clipPath id="a74c663495"><path d="M 177.941406 83.9375 L 210.113281 83.9375 L 210.113281 116.113281 L 177.941406 116.113281 Z M 177.941406 83.9375 " clip-rule="nonzero"/></clipPath><clipPath id="11ec44b261"><path d="M 194.027344 83.9375 C 185.144531 83.9375 177.941406 91.140625 177.941406 100.027344 C 177.941406 108.910156 185.144531 116.113281 194.027344 116.113281 C 202.914062 116.113281 210.113281 108.910156 210.113281 100.027344 C 210.113281 91.140625 202.914062 83.9375 194.027344 83.9375 Z M 194.027344 83.9375 " clip-rule="nonzero"/></clipPath><clipPath id="7e490255c0"><path d="M 53.976562 194.703125 L 305.335938 194.703125 L 305.335938 233.398438 L 53.976562 233.398438 Z M 53.976562 194.703125 " clip-rule="nonzero"/></clipPath><clipPath id="c1dd4a8ef0"><path d="M 73.324219 194.703125 L 285.957031 194.703125 C 291.089844 194.703125 296.011719 196.742188 299.636719 200.371094 C 303.265625 204 305.304688 208.921875 305.304688 214.050781 C 305.304688 219.183594 303.265625 224.105469 299.636719 227.730469 C 296.011719 231.359375 291.089844 233.398438 285.957031 233.398438 L 73.324219 233.398438 C 68.195312 233.398438 63.273438 231.359375 59.644531 227.730469 C 56.015625 224.105469 53.976562 219.183594 53.976562 214.050781 C 53.976562 208.921875 56.015625 204 59.644531 200.371094 C 63.273438 196.742188 68.195312 194.703125 73.324219 194.703125 Z M 73.324219 194.703125 " clip-rule="nonzero"/></clipPath></defs><g fill="#ef5d29" fill-opacity="1"><g transform="translate(66.54076, 184.348298)"><g><path d="M 18.609375 -52.03125 L 18.609375 0 L 4.34375 0 L 4.34375 -52.03125 Z M 18.609375 -52.03125 "/></g></g></g><g fill="#ef5d29" fill-opacity="1"><g transform="translate(89.49, 184.348298)"><g><path d="M 28.65625 -38.84375 C 32.738281 -38.84375 36.097656 -37.40625 38.734375 -34.53125 C 41.378906 -31.65625 42.703125 -27.460938 42.703125 -21.953125 L 42.703125 0 L 29.015625 0 L 29.015625 -19.953125 C 29.015625 -22.472656 28.585938 -24.234375 27.734375 -25.234375 C 26.878906 -26.234375 25.617188 -26.734375 23.953125 -26.734375 C 22.191406 -26.734375 20.738281 -26.078125 19.59375 -24.765625 C 18.457031 -23.460938 17.890625 -21.476562 17.890625 -18.8125 L 17.890625 0 L 4.140625 0 L 4.140625 -37.78125 L 10.546875 -37.78125 L 15.109375 -26.59375 C 16.054688 -30.820312 17.742188 -33.921875 20.171875 -35.890625 C 22.597656 -37.859375 25.425781 -38.84375 28.65625 -38.84375 Z M 28.65625 -38.84375 "/></g></g></g><g fill="#ef5d29" fill-opacity="1"><g transform="translate(135.388493, 184.348298)"><g><path d="M 29.578125 -31.078125 L 29.578125 -52.03125 L 43.265625 -52.03125 L 43.265625 0 L 36.859375 0 L 32.296875 -11.40625 C 31.390625 -7.414062 29.59375 -4.335938 26.90625 -2.171875 C 24.21875 -0.015625 21.117188 1.0625 17.609375 1.0625 C 14.804688 1.0625 12.191406 0.289062 9.765625 -1.25 C 7.335938 -2.789062 5.398438 -5 3.953125 -7.875 C 2.503906 -10.75 1.78125 -14.160156 1.78125 -18.109375 L 1.78125 -19.671875 C 1.78125 -23.617188 2.503906 -27.03125 3.953125 -29.90625 C 5.398438 -32.78125 7.335938 -34.988281 9.765625 -36.53125 C 12.191406 -38.070312 14.804688 -38.84375 17.609375 -38.84375 C 20.128906 -38.84375 22.429688 -38.175781 24.515625 -36.84375 C 26.609375 -35.519531 28.296875 -33.597656 29.578125 -31.078125 Z M 22.53125 -10.765625 C 24.613281 -10.765625 26.304688 -11.460938 27.609375 -12.859375 C 28.921875 -14.265625 29.578125 -16.273438 29.578125 -18.890625 C 29.578125 -21.546875 28.921875 -23.5625 27.609375 -24.9375 C 26.304688 -26.320312 24.613281 -27.015625 22.53125 -27.015625 C 20.382812 -27.015625 18.679688 -26.335938 17.421875 -24.984375 C 16.171875 -23.628906 15.546875 -21.597656 15.546875 -18.890625 C 15.546875 -16.179688 16.171875 -14.148438 17.421875 -12.796875 C 18.679688 -11.441406 20.382812 -10.765625 22.53125 -10.765625 Z M 22.53125 -10.765625 "/></g></g></g><g fill="#ef5d29" fill-opacity="1"><g transform="translate(182.783667, 184.348298)"><g><path d="M 18.25 -48.828125 C 18.25 -50.921875 17.609375 -52.582031 16.328125 -53.8125 C 15.046875 -55.050781 13.265625 -55.671875 10.984375 -55.671875 C 8.703125 -55.671875 6.914062 -55.050781 5.625 -53.8125 C 4.34375 -52.582031 3.703125 -50.921875 3.703125 -48.828125 C 3.703125 -46.734375 4.34375 -45.066406 5.625 -43.828125 C 6.914062 -42.597656 8.703125 -41.984375 10.984375 -41.984375 C 13.265625 -41.984375 15.046875 -42.597656 16.328125 -43.828125 C 17.609375 -45.066406 18.25 -46.734375 18.25 -48.828125 Z M 17.8125 0 L 4.140625 0 L 4.140625 -37.78125 L 17.8125 -37.78125 Z M 17.8125 0 "/></g></g></g><g fill="#ef5d29" fill-opacity="1"><g transform="translate(204.735124, 184.348298)"><g><path d="M 21.953125 -38.84375 C 28.273438 -38.84375 33.003906 -37.296875 36.140625 -34.203125 C 39.273438 -31.117188 40.84375 -26.582031 40.84375 -20.59375 L 40.84375 0 L 34.421875 0 L 30.359375 -9.84375 C 29.265625 -6.375 27.316406 -3.6875 24.515625 -1.78125 C 21.710938 0.113281 18.269531 1.0625 14.1875 1.0625 C 10.238281 1.0625 7.21875 0.125 5.125 -1.75 C 3.039062 -3.625 2 -5.914062 2 -8.625 C 2 -12.707031 3.625 -15.863281 6.875 -18.09375 C 10.132812 -20.332031 15.234375 -21.976562 22.171875 -23.03125 L 27.234375 -23.8125 C 27.035156 -25.375 26.507812 -26.5 25.65625 -27.1875 C 24.800781 -27.882812 23.519531 -28.234375 21.8125 -28.234375 C 20.144531 -28.234375 18.90625 -27.898438 18.09375 -27.234375 C 17.289062 -26.566406 16.769531 -25.6875 16.53125 -24.59375 L 2.84375 -24.59375 C 3.226562 -27.445312 4.117188 -29.941406 5.515625 -32.078125 C 6.921875 -34.210938 8.976562 -35.875 11.6875 -37.0625 C 14.394531 -38.25 17.816406 -38.84375 21.953125 -38.84375 Z M 19.03125 -9.34375 C 20.695312 -9.34375 22.171875 -9.695312 23.453125 -10.40625 C 24.734375 -11.113281 25.738281 -12.035156 26.46875 -13.171875 C 27.207031 -14.316406 27.578125 -15.554688 27.578125 -16.890625 L 25.453125 -16.53125 C 19.128906 -15.488281 15.96875 -13.851562 15.96875 -11.625 C 15.96875 -11 16.21875 -10.460938 16.71875 -10.015625 C 17.21875 -9.566406 17.988281 -9.34375 19.03125 -9.34375 Z M 19.03125 -9.34375 "/></g></g></g><g fill="#ef5d29" fill-opacity="1"><g transform="translate(248.638023, 184.348298)"><g><path d="M 28.65625 -38.84375 C 32.738281 -38.84375 36.097656 -37.40625 38.734375 -34.53125 C 41.378906 -31.65625 42.703125 -27.460938 42.703125 -21.953125 L 42.703125 0 L 29.015625 0 L 29.015625 -19.953125 C 29.015625 -22.472656 28.585938 -24.234375 27.734375 -25.234375 C 26.878906 -26.234375 25.617188 -26.734375 23.953125 -26.734375 C 22.191406 -26.734375 20.738281 -26.078125 19.59375 -24.765625 C 18.457031 -23.460938 17.890625 -21.476562 17.890625 -18.8125 L 17.890625 0 L 4.140625 0 L 4.140625 -37.78125 L 10.546875 -37.78125 L 15.109375 -26.59375 C 16.054688 -30.820312 17.742188 -33.921875 20.171875 -35.890625 C 22.597656 -37.859375 25.425781 -38.84375 28.65625 -38.84375 Z M 28.65625 -38.84375 "/></g></g></g><g clip-path="url(#35cef9ad00)"><g clip-path="url(#6319a811a1)"><path fill="#ef5d29" d="M 186.1875 119.132812 L 201.867188 119.132812 L 201.867188 186.511719 L 186.1875 186.511719 Z M 186.1875 119.132812 " fill-opacity="1" fill-rule="nonzero"/></g></g><g clip-path="url(#00834eb170)"><g clip-path="url(#dd8881ea15)"><path stroke-linecap="butt" transform="matrix(0.849047, 0, 0, 0.849047, 186.188399, 119.155663)" fill="none" stroke-linejoin="miter" d="M 9.228035 0.000691863 C 11.675631 0.000691863 14.022011 0.971449 15.751891 2.701329 C 17.481771 4.431209 18.452528 6.777589 18.452528 9.225185 L 18.452528 70.047033 C 18.452528 72.494629 17.481771 74.841009 15.751891 76.570889 C 14.022011 78.300769 11.675631 79.276127 9.228035 79.276127 C 6.780439 79.276127 4.434059 78.300769 2.704179 76.570889 C 0.974299 74.841009 -0.00105939 72.494629 -0.00105939 70.047033 L -0.00105939 9.225185 C -0.00105939 6.777589 0.974299 4.431209 2.704179 2.701329 C 4.434059 0.971449 6.780439 0.000691863 9.228035 0.000691863 Z M 9.228035 0.000691863 " stroke="#ef5d29" stroke-width="3.533372" stroke-opacity="1" stroke-miterlimit="4"/></g></g><g clip-path="url(#a74c663495)"><g clip-path="url(#11ec44b261)"><path fill="#e7191f" d="M 177.941406 83.9375 L 210.113281 83.9375 L 210.113281 116.113281 L 177.941406 116.113281 Z M 177.941406 83.9375 " fill-opacity="1" fill-rule="nonzero"/></g></g><g clip-path="url(#7e490255c0)"><g clip-path="url(#c1dd4a8ef0)"><path fill="#00913b" d="M 53.976562 194.703125 L 305.335938 194.703125 L 305.335938 233.398438 L 53.976562 233.398438 Z M 53.976562 194.703125 " fill-opacity="1" fill-rule="nonzero"/></g></g><g fill="#ffffff" fill-opacity="1"><g transform="translate(67.528512, 223.560576)"><g><path d="M 2.3125 -7.421875 C 2.695312 -7.117188 3.359375 -6.703125 4.296875 -6.171875 C 5.242188 -5.640625 6.144531 -5.375 7 -5.375 C 7.863281 -5.375 8.296875 -5.710938 8.296875 -6.390625 C 8.296875 -6.691406 8.175781 -6.957031 7.9375 -7.1875 C 7.695312 -7.425781 7.25 -7.695312 6.59375 -8 C 5.945312 -8.300781 5.460938 -8.535156 5.140625 -8.703125 C 4.816406 -8.878906 4.382812 -9.164062 3.84375 -9.5625 C 3.3125 -9.957031 2.898438 -10.367188 2.609375 -10.796875 C 1.804688 -11.953125 1.40625 -13.421875 1.40625 -15.203125 C 1.40625 -16.984375 2.066406 -18.488281 3.390625 -19.71875 C 4.710938 -20.945312 6.453125 -21.5625 8.609375 -21.5625 C 10.066406 -21.5625 11.410156 -21.398438 12.640625 -21.078125 C 13.878906 -20.765625 14.519531 -20.359375 14.5625 -19.859375 C 14.5625 -19.796875 14.5625 -19.734375 14.5625 -19.671875 C 14.5625 -18.960938 14.335938 -18.066406 13.890625 -16.984375 C 13.453125 -15.898438 13.140625 -15.296875 12.953125 -15.171875 C 11.648438 -15.835938 10.488281 -16.171875 9.46875 -16.171875 C 8.445312 -16.171875 7.9375 -15.804688 7.9375 -15.078125 C 7.9375 -14.628906 8.3125 -14.234375 9.0625 -13.890625 C 9.21875 -13.816406 9.445312 -13.707031 9.75 -13.5625 C 10.0625 -13.414062 10.414062 -13.242188 10.8125 -13.046875 C 11.207031 -12.859375 11.628906 -12.617188 12.078125 -12.328125 C 12.535156 -12.035156 13.03125 -11.644531 13.5625 -11.15625 C 14.632812 -10.144531 15.171875 -8.804688 15.171875 -7.140625 C 15.171875 -4.972656 14.570312 -3.195312 13.375 -1.8125 C 12.175781 -0.4375 10.332031 0.265625 7.84375 0.296875 C 6.625 0.296875 5.523438 0.195312 4.546875 0 C 3.566406 -0.195312 2.707031 -0.585938 1.96875 -1.171875 C 1.238281 -1.765625 0.875 -2.476562 0.875 -3.3125 C 0.875 -4.144531 1.023438 -4.972656 1.328125 -5.796875 C 1.640625 -6.617188 1.96875 -7.160156 2.3125 -7.421875 Z M 2.3125 -7.421875 "/></g></g></g><g fill="#ffffff" fill-opacity="1"><g transform="translate(85.403234, 223.560576)"><g><path d="M 11.46875 -20.671875 C 11.46875 -21.078125 12.566406 -21.28125 14.765625 -21.28125 C 16.960938 -21.28125 18.0625 -21.078125 18.0625 -20.671875 L 18.0625 -6.71875 C 18.0625 -4.65625 17.320312 -2.96875 15.84375 -1.65625 C 14.363281 -0.351562 12.320312 0.296875 9.71875 0.296875 C 7.113281 0.296875 4.992188 -0.375 3.359375 -1.71875 C 1.722656 -3.0625 0.90625 -4.878906 0.90625 -7.171875 L 0.90625 -20.640625 C 0.90625 -21.046875 2.003906 -21.25 4.203125 -21.25 C 6.410156 -21.25 7.515625 -21.046875 7.515625 -20.640625 L 7.515625 -6.9375 C 7.515625 -6.53125 7.726562 -6.203125 8.15625 -5.953125 C 8.59375 -5.710938 9.054688 -5.59375 9.546875 -5.59375 C 10.035156 -5.59375 10.476562 -5.703125 10.875 -5.921875 C 11.269531 -6.148438 11.46875 -6.488281 11.46875 -6.9375 Z M 11.46875 -20.671875 "/></g></g></g><g fill="#ffffff" fill-opacity="1"><g transform="translate(106.226599, 223.560576)"><g><path d="M 4.171875 0.0625 C 2.328125 0.0625 1.40625 -0.140625 1.40625 -0.546875 L 1.40625 -20.25 C 1.40625 -20.9375 1.71875 -21.28125 2.34375 -21.28125 L 7.6875 -21.28125 C 10.6875 -21.28125 12.847656 -20.660156 14.171875 -19.421875 C 15.503906 -18.191406 16.171875 -16.398438 16.171875 -14.046875 C 16.171875 -12.097656 15.546875 -10.316406 14.296875 -8.703125 C 13.660156 -7.890625 12.734375 -7.238281 11.515625 -6.75 C 10.304688 -6.257812 8.890625 -6.015625 7.265625 -6.015625 L 7.265625 -0.578125 C 7.265625 -0.335938 6.882812 -0.171875 6.125 -0.078125 C 5.363281 0.015625 4.710938 0.0625 4.171875 0.0625 Z M 7.265625 -16 L 7.265625 -11.1875 L 7.65625 -11.1875 C 8.375 -11.1875 8.972656 -11.410156 9.453125 -11.859375 C 9.941406 -12.304688 10.1875 -12.929688 10.1875 -13.734375 C 10.1875 -14.546875 10.019531 -15.125 9.6875 -15.46875 C 9.351562 -15.820312 8.757812 -16 7.90625 -16 Z M 7.265625 -16 "/></g></g></g><g fill="#ffffff" fill-opacity="1"><g transform="translate(125.28685, 223.560576)"><g><path d="M 11.40625 -12.828125 C 11.789062 -12.828125 11.984375 -12.117188 11.984375 -10.703125 C 11.984375 -10.273438 11.9375 -9.769531 11.84375 -9.1875 C 11.75 -8.613281 11.582031 -8.328125 11.34375 -8.328125 L 7.484375 -8.328125 L 7.484375 -5.296875 L 13.078125 -5.296875 C 13.421875 -5.296875 13.65625 -4.847656 13.78125 -3.953125 C 13.832031 -3.566406 13.859375 -3.15625 13.859375 -2.71875 C 13.859375 -2.28125 13.796875 -1.71875 13.671875 -1.03125 C 13.554688 -0.34375 13.359375 0 13.078125 0 L 2.671875 0 C 1.898438 0 1.515625 -0.3125 1.515625 -0.9375 L 1.515625 -20.5 C 1.515625 -21.019531 1.75 -21.28125 2.21875 -21.28125 L 13.109375 -21.28125 C 13.535156 -21.28125 13.75 -20.382812 13.75 -18.59375 C 13.75 -16.800781 13.535156 -15.90625 13.109375 -15.90625 L 7.484375 -15.90625 L 7.484375 -12.828125 Z M 11.40625 -12.828125 "/></g></g></g><g fill="#ffffff" fill-opacity="1"><g transform="translate(142.006439, 223.560576)"><g><path d="M 7.328125 -0.421875 C 7.328125 -0.0976562 6.363281 0.0625 4.4375 0.0625 C 2.488281 0.0625 1.515625 -0.0859375 1.515625 -0.390625 L 1.515625 -20.21875 C 1.515625 -20.925781 1.890625 -21.28125 2.640625 -21.28125 L 8.453125 -21.28125 C 13.785156 -21.28125 16.453125 -19.203125 16.453125 -15.046875 C 16.453125 -13.796875 16.207031 -12.65625 15.71875 -11.625 C 15.226562 -10.601562 14.539062 -9.789062 13.65625 -9.1875 L 17.484375 -2.796875 C 17.316406 -2.304688 16.789062 -1.75 15.90625 -1.125 C 14.6875 -0.25 13.679688 0.1875 12.890625 0.1875 C 12.097656 0.1875 11.507812 -0.0976562 11.125 -0.671875 L 8.265625 -7.328125 L 7.328125 -7.328125 Z M 7.328125 -15.90625 L 7.328125 -11.34375 L 7.484375 -11.34375 C 9.410156 -11.34375 10.375 -12.144531 10.375 -13.75 C 10.375 -14.476562 10.1875 -15.019531 9.8125 -15.375 C 9.4375 -15.726562 8.820312 -15.90625 7.96875 -15.90625 Z M 7.328125 -15.90625 "/></g></g></g><g fill="#ffffff" fill-opacity="1"><g transform="translate(161.674672, 223.560576)"><g/></g></g><g fill="#ffffff" fill-opacity="1"><g transform="translate(169.122775, 223.560576)"><g><path d="M 22.796875 0.03125 C 20.992188 0.03125 20.09375 -0.171875 20.09375 -0.578125 L 19.453125 -12.765625 L 15.75 -0.421875 C 15.664062 -0.179688 14.972656 -0.0625 13.671875 -0.0625 C 12.378906 -0.0625 11.710938 -0.171875 11.671875 -0.390625 L 7.84375 -12.890625 L 7.421875 -0.765625 C 7.398438 -0.453125 7.015625 -0.238281 6.265625 -0.125 C 5.515625 -0.0195312 4.890625 0.03125 4.390625 0.03125 C 3.898438 0.03125 3.421875 0 2.953125 -0.0625 C 1.972656 -0.207031 1.492188 -0.460938 1.515625 -0.828125 L 2.21875 -20.578125 C 2.21875 -21.066406 3.453125 -21.3125 5.921875 -21.3125 C 6.660156 -21.3125 7.554688 -21.253906 8.609375 -21.140625 C 9.660156 -21.035156 10.25 -20.820312 10.375 -20.5 L 13.78125 -10.921875 L 16.75 -20.53125 C 16.9375 -21.050781 18.335938 -21.3125 20.953125 -21.3125 C 21.703125 -21.3125 22.597656 -21.253906 23.640625 -21.140625 C 24.679688 -21.035156 25.203125 -20.835938 25.203125 -20.546875 L 26.09375 -0.609375 C 26.09375 -0.390625 25.695312 -0.226562 24.90625 -0.125 C 24.113281 -0.0195312 23.410156 0.03125 22.796875 0.03125 Z M 22.796875 0.03125 "/></g></g></g><g fill="#ffffff" fill-opacity="1"><g transform="translate(198.427263, 223.560576)"><g><path d="M 15.8125 0.0625 C 14.050781 0.0625 13.097656 -0.222656 12.953125 -0.796875 L 11.953125 -4.71875 L 7.109375 -4.71875 L 6.234375 -0.9375 C 6.109375 -0.3125 5.132812 0 3.3125 0 C 2.34375 0 1.625 -0.0507812 1.15625 -0.15625 C 0.6875 -0.269531 0.453125 -0.359375 0.453125 -0.421875 L 5.84375 -21.015625 C 5.84375 -21.171875 7.226562 -21.25 10 -21.25 C 12.78125 -21.25 14.171875 -21.171875 14.171875 -21.015625 L 19.421875 -0.390625 C 19.421875 -0.253906 18.953125 -0.144531 18.015625 -0.0625 C 17.085938 0.0195312 16.351562 0.0625 15.8125 0.0625 Z M 7.875 -8.578125 L 11.0625 -8.578125 L 9.703125 -14.875 L 9.515625 -14.875 Z M 7.875 -8.578125 "/></g></g></g><g fill="#ffffff" fill-opacity="1"><g transform="translate(220.071386, 223.560576)"><g><path d="M 7.328125 -0.421875 C 7.328125 -0.0976562 6.363281 0.0625 4.4375 0.0625 C 2.488281 0.0625 1.515625 -0.0859375 1.515625 -0.390625 L 1.515625 -20.21875 C 1.515625 -20.925781 1.890625 -21.28125 2.640625 -21.28125 L 8.453125 -21.28125 C 13.785156 -21.28125 16.453125 -19.203125 16.453125 -15.046875 C 16.453125 -13.796875 16.207031 -12.65625 15.71875 -11.625 C 15.226562 -10.601562 14.539062 -9.789062 13.65625 -9.1875 L 17.484375 -2.796875 C 17.316406 -2.304688 16.789062 -1.75 15.90625 -1.125 C 14.6875 -0.25 13.679688 0.1875 12.890625 0.1875 C 12.097656 0.1875 11.507812 -0.0976562 11.125 -0.671875 L 8.265625 -7.328125 L 7.328125 -7.328125 Z M 7.328125 -15.90625 L 7.328125 -11.34375 L 7.484375 -11.34375 C 9.410156 -11.34375 10.375 -12.144531 10.375 -13.75 C 10.375 -14.476562 10.1875 -15.019531 9.8125 -15.375 C 9.4375 -15.726562 8.820312 -15.90625 7.96875 -15.90625 Z M 7.328125 -15.90625 "/></g></g></g><g fill="#ffffff" fill-opacity="1"><g transform="translate(239.739619, 223.560576)"><g><path d="M 7.59375 -0.421875 C 7.59375 -0.117188 6.644531 0.03125 4.75 0.03125 L 3.046875 -0.0625 C 2.023438 -0.144531 1.515625 -0.285156 1.515625 -0.484375 L 1.515625 -20.890625 C 1.515625 -21.234375 2.523438 -21.40625 4.546875 -21.40625 C 6.578125 -21.40625 7.59375 -21.234375 7.59375 -20.890625 L 7.59375 -13.109375 L 11.3125 -20.890625 C 11.457031 -21.171875 12.269531 -21.3125 13.75 -21.3125 C 16.4375 -21.3125 17.851562 -21.078125 18 -20.609375 C 18 -20.566406 17.988281 -20.53125 17.96875 -20.5 L 12.671875 -10.953125 L 18.828125 -2.46875 C 18.828125 -2.425781 18.632812 -2.253906 18.25 -1.953125 C 17.3125 -1.140625 16.210938 -0.5 14.953125 -0.03125 C 14.566406 0.113281 14.179688 0.1875 13.796875 0.1875 L 13.078125 0.125 C 12.429688 -0.0390625 11.921875 -0.457031 11.546875 -1.125 L 8.09375 -7.75 L 7.59375 -7.75 Z M 7.59375 -0.421875 "/></g></g></g><g fill="#ffffff" fill-opacity="1"><g transform="translate(260.319799, 223.560576)"><g><path d="M 11.40625 -12.828125 C 11.789062 -12.828125 11.984375 -12.117188 11.984375 -10.703125 C 11.984375 -10.273438 11.9375 -9.769531 11.84375 -9.1875 C 11.75 -8.613281 11.582031 -8.328125 11.34375 -8.328125 L 7.484375 -8.328125 L 7.484375 -5.296875 L 13.078125 -5.296875 C 13.421875 -5.296875 13.65625 -4.847656 13.78125 -3.953125 C 13.832031 -3.566406 13.859375 -3.15625 13.859375 -2.71875 C 13.859375 -2.28125 13.796875 -1.71875 13.671875 -1.03125 C 13.554688 -0.34375 13.359375 0 13.078125 0 L 2.671875 0 C 1.898438 0 1.515625 -0.3125 1.515625 -0.9375 L 1.515625 -20.5 C 1.515625 -21.019531 1.75 -21.28125 2.21875 -21.28125 L 13.109375 -21.28125 C 13.535156 -21.28125 13.75 -20.382812 13.75 -18.59375 C 13.75 -16.800781 13.535156 -15.90625 13.109375 -15.90625 L 7.484375 -15.90625 L 7.484375 -12.828125 Z M 11.40625 -12.828125 "/></g></g></g><g fill="#ffffff" fill-opacity="1"><g transform="translate(277.039388, 223.560576)"><g><path d="M 10.671875 -0.484375 C 10.671875 -0.078125 9.664062 0.125 7.65625 0.125 C 5.65625 0.125 4.65625 -0.078125 4.65625 -0.484375 L 4.65625 -15.75 L 1 -15.75 C 0.65625 -15.75 0.414062 -16.21875 0.28125 -17.15625 C 0.21875 -17.59375 0.1875 -18.046875 0.1875 -18.515625 C 0.1875 -18.984375 0.21875 -19.441406 0.28125 -19.890625 C 0.414062 -20.816406 0.65625 -21.28125 1 -21.28125 L 14.234375 -21.28125 C 14.578125 -21.28125 14.816406 -20.816406 14.953125 -19.890625 C 15.015625 -19.441406 15.046875 -18.984375 15.046875 -18.515625 C 15.046875 -18.046875 15.015625 -17.59375 14.953125 -17.15625 C 14.816406 -16.21875 14.578125 -15.75 14.234375 -15.75 L 10.671875 -15.75 Z M 10.671875 -0.484375 "/></g></g></g></svg>